<svg width="12" height="17" viewBox="0 0 12 17" fill="none" xmlns="http://www.w3.org/2000/svg">
<path d="M11.4555 6.70005L9.12055 7.74113L2.92616 10.8941L9.12055 13.8723V8.94952L11.4555 7.89729V15.1699L9.12055 16.211L0 11.8459V9.52582L6.31337 6.42863L0 3.39464V1.04107L2.37216 0L11.4555 4.37251V6.70005Z" fill="#73E1A0"/>
<path d="M0 1.04107L9.12055 5.41358L11.4555 4.37251L2.37216 0L0 1.04107Z" fill="#C0F1D4"/>
<path d="M9.12109 5.40338L11.4561 4.3623V6.68985L9.12109 7.73092V5.40338Z" fill="#73E1A0"/>
<path d="M0 1.04297V3.39654L6.31337 6.43052L0 9.52772V11.8478L9.12055 16.2129V13.8779L2.92616 10.896L9.12055 7.74302V5.41548L0 1.04297Z" fill="#73E1A0"/>
<path d="M9.12109 16.1956L11.4561 15.1545V7.88184L9.12109 8.93406V16.1956Z" fill="#C0F1D4"/>
</svg>
