<?xml version="1.0" standalone="no"?>
<!DOCTYPE svg PUBLIC "-//W3C//DTD SVG 20010904//EN"
 "http://www.w3.org/TR/2001/REC-SVG-20010904/DTD/svg10.dtd">
<svg version="1.0" xmlns="http://www.w3.org/2000/svg"
 width="916.000000pt" height="916.000000pt" viewBox="0 0 916.000000 916.000000"
 preserveAspectRatio="xMidYMid meet">
<metadata>
Created by potrace 1.11, written by Peter Selinger 2001-2013
</metadata>
<g transform="translate(0.000000,916.000000) scale(0.100000,-0.100000)"
fill="#000000" stroke="none">
<path d="M3715 8879 c-75 -149 -266 -528 -424 -842 -159 -315 -440 -874 -625
-1243 l-337 -671 44 -94 c25 -52 75 -157 112 -234 37 -77 87 -180 110 -230 23
-49 77 -162 120 -250 42 -88 90 -187 105 -220 15 -33 67 -141 115 -240 48 -99
103 -214 122 -255 19 -41 64 -136 100 -210 36 -74 93 -191 125 -260 113 -236
170 -355 218 -455 26 -55 78 -163 115 -240 37 -77 85 -178 107 -225 23 -47 79
-164 125 -260 47 -96 101 -209 120 -250 19 -41 64 -136 100 -210 36 -74 85
-175 108 -225 23 -49 77 -162 120 -250 43 -88 94 -196 115 -240 43 -92 114
-240 225 -470 43 -88 97 -200 120 -250 77 -163 142 -298 220 -460 42 -88 93
-194 112 -235 112 -236 173 -360 178 -360 3 0 181 352 394 782 214 431 562
1133 775 1562 267 538 385 785 380 798 -3 11 -53 115 -111 231 -58 117 -156
316 -218 442 -62 127 -204 415 -315 640 -111 226 -264 536 -340 690 -76 154
-222 451 -325 660 -103 209 -252 511 -330 670 -78 160 -218 443 -310 630 -92
187 -229 466 -305 620 -76 154 -238 483 -360 730 -122 248 -249 505 -282 573
-33 67 -61 122 -64 122 -2 0 -65 -122 -139 -271z m198 -281 c25 -51 89 -183
142 -293 54 -110 128 -263 165 -340 37 -77 114 -234 170 -350 100 -204 195
-401 326 -673 35 -73 119 -244 185 -380 154 -313 191 -393 186 -398 -5 -5
-2439 -6 -2444 -1 -3 4 65 148 257 542 51 105 132 271 180 370 48 99 127 261
175 360 48 99 118 243 155 320 37 77 121 250 187 385 66 135 152 314 193 398
40 83 75 152 76 152 2 0 23 -42 47 -92z m1183 -2681 c2 -1 -12 -33 -31 -70
-19 -37 -32 -67 -29 -67 3 0 -4 -13 -15 -29 -12 -16 -21 -32 -21 -34 0 -3 -46
-99 -101 -214 -56 -114 -130 -266 -164 -338 -34 -71 -109 -224 -165 -340 -178
-364 -281 -576 -340 -700 -32 -66 -116 -239 -187 -385 -71 -146 -138 -285
-150 -310 l-21 -45 -92 190 c-51 105 -130 267 -175 360 -162 334 -258 532
-325 670 -37 77 -119 246 -182 375 -63 129 -157 323 -209 430 -52 107 -128
265 -170 350 l-76 155 25 5 c26 5 2423 2 2428 -3z m238 -270 c30 -62 100 -206
156 -322 192 -394 282 -580 350 -720 89 -183 274 -565 406 -835 58 -118 138
-282 178 -365 l73 -150 -1225 -3 c-674 -1 -1227 0 -1229 1 -2 2 16 44 41 93
24 49 81 166 126 259 45 94 125 258 177 365 309 632 460 943 523 1075 32 66
116 239 187 385 71 146 138 282 147 302 10 21 22 35 27 32 6 -3 34 -56 63
-117z m1161 -2630 c1 -1 -35 -78 -81 -172 -147 -301 -486 -997 -582 -1195 -38
-80 -112 -233 -165 -340 -234 -481 -311 -641 -350 -722 -23 -48 -45 -88 -48
-88 -3 0 -49 89 -102 198 -130 267 -296 609 -372 767 -34 72 -110 227 -168
345 -57 118 -134 276 -170 350 -59 124 -115 239 -337 695 -43 88 -76 162 -74
165 2 6 2445 3 2449 -3z"/>
</g>
</svg>
